<?xml version="1.0" encoding="UTF-8"?>
<svg xmlns="http://www.w3.org/2000/svg" xmlns:xlink="http://www.w3.org/1999/xlink" width="600" height="450" viewBox="0 0 600 450">
<path fill-rule="nonzero" fill="rgb(79.6%, 23.5%, 20%)" fill-opacity="1" d="M 410.5 205.125 C 410.5 198.398438 400.394531 198.398438 400.394531 205.125 C 400.394531 211.855469 410.5 211.855469 410.5 205.125 Z M 410.5 205.125 "/>
<path fill-rule="nonzero" fill="rgb(22%, 59.600002%, 14.9%)" fill-opacity="1" d="M 412.523438 106.078125 C 412.523438 99.347656 402.417969 99.347656 402.417969 106.078125 C 402.417969 112.804688 412.523438 112.804688 412.523438 106.078125 Z M 412.523438 106.078125 "/>
<path fill-rule="nonzero" fill="rgb(79.6%, 23.5%, 20%)" fill-opacity="1" d="M 539.703125 157.847656 C 539.703125 151.121094 529.597656 151.121094 529.597656 157.847656 C 529.597656 164.578125 539.703125 164.578125 539.703125 157.847656 Z M 539.703125 157.847656 "/>
<path fill-rule="nonzero" fill="rgb(79.6%, 23.5%, 20%)" fill-opacity="1" d="M 416.695312 199.363281 C 416.695312 192.632812 406.589844 192.632812 406.589844 199.363281 C 406.589844 206.089844 416.695312 206.089844 416.695312 199.363281 Z M 416.695312 199.363281 "/>
<path fill-rule="nonzero" fill="rgb(22%, 59.600002%, 14.9%)" fill-opacity="1" d="M 437.554688 85.945312 C 437.554688 79.21875 427.449219 79.21875 427.449219 85.945312 C 427.449219 92.675781 437.554688 92.675781 437.554688 85.945312 Z M 437.554688 85.945312 "/>
<path fill-rule="nonzero" fill="rgb(79.6%, 23.5%, 20%)" fill-opacity="1" d="M 424.890625 192.570312 C 424.890625 185.84375 414.785156 185.84375 414.785156 192.570312 C 414.785156 199.300781 424.890625 199.300781 424.890625 192.570312 Z M 424.890625 192.570312 "/>
<path fill-rule="nonzero" fill="rgb(79.6%, 23.5%, 20%)" fill-opacity="1" d="M 437.046875 183.972656 C 437.046875 177.242188 426.941406 177.242188 426.941406 183.972656 C 426.941406 190.699219 437.046875 190.699219 437.046875 183.972656 Z M 437.046875 183.972656 "/>
<path fill-rule="nonzero" fill="rgb(79.6%, 23.5%, 20%)" fill-opacity="1" d="M 463.066406 170.316406 C 463.066406 163.585938 452.960938 163.585938 452.960938 170.316406 C 452.960938 177.042969 463.066406 177.042969 463.066406 170.316406 Z M 463.066406 170.316406 "/>
<path fill-rule="nonzero" fill="rgb(22%, 59.600002%, 14.9%)" fill-opacity="1" d="M 405.746094 110.300781 C 405.746094 103.570312 395.640625 103.570312 395.640625 110.300781 C 395.640625 117.027344 405.746094 117.027344 405.746094 110.300781 Z M 405.746094 110.300781 "/>
<path fill-rule="nonzero" fill="rgb(22%, 59.600002%, 14.9%)" fill-opacity="1" d="M 389.171875 118.878906 C 389.171875 112.148438 379.066406 112.148438 379.066406 118.878906 C 379.066406 125.605469 389.171875 125.605469 389.171875 118.878906 Z M 389.171875 118.878906 "/>
<path fill-rule="nonzero" fill="rgb(22%, 59.600002%, 14.9%)" fill-opacity="1" d="M 377.894531 123.453125 C 377.894531 116.722656 367.789062 116.722656 367.789062 123.453125 C 367.789062 130.179688 377.894531 130.179688 377.894531 123.453125 Z M 377.894531 123.453125 "/>
<path fill-rule="nonzero" fill="rgb(79.6%, 23.5%, 20%)" fill-opacity="1" d="M 508.960938 158.4375 C 508.960938 151.710938 498.855469 151.710938 498.855469 158.4375 C 498.855469 165.167969 508.960938 165.167969 508.960938 158.4375 Z M 508.960938 158.4375 "/>
<path fill-rule="nonzero" fill="rgb(22%, 59.600002%, 14.9%)" fill-opacity="1" d="M 369.0625 126.390625 C 369.0625 119.664062 358.957031 119.664062 358.957031 126.390625 C 358.957031 133.121094 369.0625 133.121094 369.0625 126.390625 Z M 369.0625 126.390625 "/>
<path fill-rule="nonzero" fill="rgb(79.6%, 23.5%, 20%)" fill-opacity="1" d="M 463.730469 170.042969 C 463.730469 163.3125 453.625 163.3125 453.625 170.042969 C 453.625 176.769531 463.730469 176.769531 463.730469 170.042969 Z M 463.730469 170.042969 "/>
<path fill-rule="nonzero" fill="rgb(22%, 59.600002%, 14.9%)" fill-opacity="1" d="M 361.675781 128.441406 C 361.675781 121.710938 351.570312 121.710938 351.570312 128.441406 C 351.570312 135.167969 361.675781 135.167969 361.675781 128.441406 Z M 361.675781 128.441406 "/>
<path fill-rule="nonzero" fill="rgb(79.6%, 23.5%, 20%)" fill-opacity="1" d="M 441.542969 181.179688 C 441.542969 174.453125 431.4375 174.453125 431.4375 181.179688 C 431.4375 187.910156 441.542969 187.910156 441.542969 181.179688 Z M 441.542969 181.179688 "/>
<path fill-rule="nonzero" fill="rgb(22%, 59.600002%, 14.9%)" fill-opacity="1" d="M 432.996094 90.238281 C 432.996094 83.507812 422.890625 83.507812 422.890625 90.238281 C 422.890625 96.964844 432.996094 96.964844 432.996094 90.238281 Z M 432.996094 90.238281 "/>
<path fill-rule="nonzero" fill="rgb(22%, 59.600002%, 14.9%)" fill-opacity="1" d="M 355.246094 129.929688 C 355.246094 123.203125 345.140625 123.203125 345.140625 129.929688 C 345.140625 136.660156 355.246094 136.660156 355.246094 129.929688 Z M 355.246094 129.929688 "/>
<path fill-rule="nonzero" fill="rgb(79.6%, 23.5%, 20%)" fill-opacity="1" d="M 425.640625 191.992188 C 425.640625 185.261719 415.535156 185.261719 415.535156 191.992188 C 415.535156 198.71875 425.640625 198.71875 425.640625 191.992188 Z M 425.640625 191.992188 "/>
<path fill-rule="nonzero" fill="rgb(22%, 59.600002%, 14.9%)" fill-opacity="1" d="M 389.128906 118.898438 C 389.128906 112.167969 379.023438 112.167969 379.023438 118.898438 C 379.023438 125.625 389.128906 125.625 389.128906 118.898438 Z M 389.128906 118.898438 "/>
<path fill-rule="nonzero" fill="rgb(79.6%, 23.5%, 20%)" fill-opacity="1" d="M 420.203125 196.347656 C 420.203125 189.621094 410.097656 189.621094 410.097656 196.347656 C 410.097656 203.078125 420.203125 203.078125 420.203125 196.347656 Z M 420.203125 196.347656 "/>
<path fill-rule="nonzero" fill="rgb(22%, 59.600002%, 14.9%)" fill-opacity="1" d="M 319.476562 133.542969 C 319.476562 126.8125 309.371094 126.8125 309.371094 133.542969 C 309.371094 140.269531 319.476562 140.269531 319.476562 133.542969 Z M 319.476562 133.542969 "/>
<path fill-rule="nonzero" fill="rgb(58.399999%, 34.5%, 69.800001%)" fill-opacity="1" d="M 218.742188 194.421875 C 218.742188 187.695312 208.636719 187.695312 208.636719 194.421875 C 208.636719 201.152344 218.742188 201.152344 218.742188 194.421875 Z M 218.742188 194.421875 "/>
<path fill-rule="nonzero" fill="rgb(22%, 59.600002%, 14.9%)" fill-opacity="1" d="M 245.757812 115.863281 C 245.757812 109.132812 235.652344 109.132812 235.652344 115.863281 C 235.652344 122.589844 245.757812 122.589844 245.757812 115.863281 Z M 245.757812 115.863281 "/>
<path fill-rule="nonzero" fill="rgb(58.399999%, 34.5%, 69.800001%)" fill-opacity="1" d="M 200.796875 181.816406 C 200.796875 175.085938 190.691406 175.085938 190.691406 181.816406 C 190.691406 188.542969 200.796875 188.542969 200.796875 181.816406 Z M 200.796875 181.816406 "/>
<path fill-rule="nonzero" fill="rgb(22%, 59.600002%, 14.9%)" fill-opacity="1" d="M 238.667969 112.101562 C 238.667969 105.371094 228.5625 105.371094 228.5625 112.101562 C 228.5625 118.828125 238.667969 118.828125 238.667969 112.101562 Z M 238.667969 112.101562 "/>
<path fill-rule="nonzero" fill="rgb(58.399999%, 34.5%, 69.800001%)" fill-opacity="1" d="M 198.722656 180.570312 C 198.722656 173.84375 188.617188 173.84375 188.617188 180.570312 C 188.617188 187.300781 198.722656 187.300781 198.722656 180.570312 Z M 198.722656 180.570312 "/>
<path fill-rule="nonzero" fill="rgb(22%, 59.600002%, 14.9%)" fill-opacity="1" d="M 239.414062 112.519531 C 239.414062 105.789062 229.308594 105.789062 229.308594 112.519531 C 229.308594 119.246094 239.414062 119.246094 239.414062 112.519531 Z M 239.414062 112.519531 "/>
<path fill-rule="nonzero" fill="rgb(58.399999%, 34.5%, 69.800001%)" fill-opacity="1" d="M 202.953125 183.152344 C 202.953125 176.421875 192.847656 176.421875 192.847656 183.152344 C 192.847656 189.878906 202.953125 189.878906 202.953125 183.152344 Z M 202.953125 183.152344 "/>
<path fill-rule="nonzero" fill="rgb(22%, 59.600002%, 14.9%)" fill-opacity="1" d="M 251.878906 118.773438 C 251.878906 112.042969 241.773438 112.042969 241.773438 118.773438 C 241.773438 125.5 251.878906 125.5 251.878906 118.773438 Z M 251.878906 118.773438 "/>
<path fill-rule="nonzero" fill="rgb(58.399999%, 34.5%, 69.800001%)" fill-opacity="1" d="M 233.878906 208.230469 C 233.878906 201.503906 223.773438 201.503906 223.773438 208.230469 C 223.773438 214.960938 233.878906 214.960938 233.878906 208.230469 Z M 233.878906 208.230469 "/>
<path fill-rule="nonzero" fill="rgb(79.6%, 23.5%, 20%)" fill-opacity="1" d="M 465.136719 169.46875 C 465.136719 162.742188 455.03125 162.742188 455.03125 169.46875 C 455.03125 176.199219 465.136719 176.199219 465.136719 169.46875 Z M 465.136719 169.46875 "/>
<path fill-rule="nonzero" fill="rgb(22%, 59.600002%, 14.9%)" fill-opacity="1" d="M 349.480469 131.042969 C 349.480469 124.316406 339.375 124.316406 339.375 131.042969 C 339.375 137.773438 349.480469 137.773438 349.480469 131.042969 Z M 349.480469 131.042969 "/>
<path fill-rule="nonzero" fill="rgb(79.6%, 23.5%, 20%)" fill-opacity="1" d="M 412.511719 203.191406 C 412.511719 196.464844 402.40625 196.464844 402.40625 203.191406 C 402.40625 209.921875 412.511719 209.921875 412.511719 203.191406 Z M 412.511719 203.191406 "/>
<path fill-rule="nonzero" fill="rgb(22%, 59.600002%, 14.9%)" fill-opacity="1" d="M 339.652344 132.464844 C 339.652344 125.734375 329.546875 125.734375 329.546875 132.464844 C 329.546875 139.191406 339.652344 139.191406 339.652344 132.464844 Z M 339.652344 132.464844 "/>
<path fill-rule="nonzero" fill="rgb(58.399999%, 34.5%, 69.800001%)" fill-opacity="1" d="M 263.664062 250.414062 C 263.664062 243.6875 253.558594 243.6875 253.558594 250.414062 C 253.558594 257.144531 263.664062 257.144531 263.664062 250.414062 Z M 263.664062 250.414062 "/>
<path fill-rule="nonzero" fill="rgb(79.6%, 23.5%, 20%)" fill-opacity="1" d="M 373.542969 259.308594 C 373.542969 252.578125 363.4375 252.578125 363.4375 259.308594 C 363.4375 266.035156 373.542969 266.035156 373.542969 259.308594 Z M 373.542969 259.308594 "/>
<path fill-rule="nonzero" fill="rgb(22%, 59.600002%, 14.9%)" fill-opacity="1" d="M 344.199219 131.878906 C 344.199219 125.152344 334.09375 125.152344 334.09375 131.878906 C 334.09375 138.609375 344.199219 138.609375 344.199219 131.878906 Z M 344.199219 131.878906 "/>
<path fill-rule="nonzero" fill="rgb(79.6%, 23.5%, 20%)" fill-opacity="1" d="M 400.714844 215.554688 C 400.714844 208.828125 390.613281 208.828125 390.613281 215.554688 C 390.613281 222.285156 400.714844 222.285156 400.714844 215.554688 Z M 400.714844 215.554688 "/>
<path fill-rule="nonzero" fill="rgb(22%, 59.600002%, 14.9%)" fill-opacity="1" d="M 339.273438 132.507812 C 339.273438 125.777344 329.167969 125.777344 329.167969 132.507812 C 329.167969 139.234375 339.273438 139.234375 339.273438 132.507812 Z M 339.273438 132.507812 "/>
<path fill-rule="nonzero" fill="rgb(79.6%, 23.5%, 20%)" fill-opacity="1" d="M 389.457031 230.203125 C 389.457031 223.476562 379.351562 223.476562 379.351562 230.203125 C 379.351562 236.933594 389.457031 236.933594 389.457031 230.203125 Z M 389.457031 230.203125 "/>
<path fill-rule="nonzero" fill="rgb(58.399999%, 34.5%, 69.800001%)" fill-opacity="1" d="M 240.023438 214.921875 C 240.023438 208.195312 229.917969 208.195312 229.917969 214.921875 C 229.917969 221.652344 240.023438 221.652344 240.023438 214.921875 Z M 240.023438 214.921875 "/>
<path fill-rule="nonzero" fill="rgb(22%, 59.600002%, 14.9%)" fill-opacity="1" d="M 243.90625 114.921875 C 243.90625 108.195312 233.800781 108.195312 233.800781 114.921875 C 233.800781 121.652344 243.90625 121.652344 243.90625 114.921875 Z M 243.90625 114.921875 "/>
<path fill-rule="nonzero" fill="rgb(58.399999%, 34.5%, 69.800001%)" fill-opacity="1" d="M 174.042969 168.640625 C 174.042969 161.910156 163.9375 161.910156 163.9375 168.640625 C 163.9375 175.367188 174.042969 175.367188 174.042969 168.640625 Z M 174.042969 168.640625 "/>
<path fill-rule="nonzero" fill="rgb(22%, 59.600002%, 14.9%)" fill-opacity="1" d="M 334.601562 132.964844 C 334.601562 126.234375 324.496094 126.234375 324.496094 132.964844 C 324.496094 139.691406 334.601562 139.691406 334.601562 132.964844 Z M 334.601562 132.964844 "/>
<path fill-rule="nonzero" fill="rgb(79.6%, 23.5%, 20%)" fill-opacity="1" d="M 378.171875 249.316406 C 378.171875 242.589844 368.066406 242.589844 368.066406 249.316406 C 368.066406 256.046875 378.171875 256.046875 378.171875 249.316406 Z M 378.171875 249.316406 "/>
<path fill-rule="nonzero" fill="rgb(58.399999%, 34.5%, 69.800001%)" fill-opacity="1" d="M 274.691406 279.042969 C 274.691406 272.316406 264.585938 272.316406 264.585938 279.042969 C 264.585938 285.773438 274.691406 285.773438 274.691406 279.042969 Z M 274.691406 279.042969 "/>
<path fill-rule="nonzero" fill="rgb(79.6%, 23.5%, 20%)" fill-opacity="1" d="M 377.539062 250.582031 C 377.539062 243.855469 367.433594 243.855469 367.433594 250.582031 C 367.433594 257.3125 377.539062 257.3125 377.539062 250.582031 Z M 377.539062 250.582031 "/>
<path fill-rule="nonzero" fill="rgb(22%, 59.600002%, 14.9%)" fill-opacity="1" d="M 330.003906 133.285156 C 330.003906 126.554688 319.902344 126.554688 319.902344 133.285156 C 319.902344 140.011719 330.003906 140.011719 330.003906 133.285156 Z M 330.003906 133.285156 "/>
<path fill-rule="nonzero" fill="rgb(58.399999%, 34.5%, 69.800001%)" fill-opacity="1" d="M 280.402344 310.527344 C 280.402344 303.800781 270.296875 303.800781 270.296875 310.527344 C 270.296875 317.257812 280.402344 317.257812 280.402344 310.527344 Z M 280.402344 310.527344 "/>
<path fill-rule="nonzero" fill="rgb(22%, 59.600002%, 14.9%)" fill-opacity="1" d="M 330.109375 133.277344 C 330.109375 126.550781 320.003906 126.550781 320.003906 133.277344 C 320.003906 140.007812 330.109375 140.007812 330.109375 133.277344 Z M 330.109375 133.277344 "/>
<path fill-rule="nonzero" fill="rgb(79.6%, 23.5%, 20%)" fill-opacity="1" d="M 366.519531 279.328125 C 366.519531 272.601562 356.414062 272.601562 356.414062 279.328125 C 356.414062 286.058594 366.519531 286.058594 366.519531 279.328125 Z M 366.519531 279.328125 "/>
<path fill-rule="nonzero" fill="rgb(58.399999%, 34.5%, 69.800001%)" fill-opacity="1" d="M 274.59375 370.144531 C 274.59375 363.417969 264.488281 363.417969 264.488281 370.144531 C 264.488281 376.875 274.59375 376.875 274.59375 370.144531 Z M 274.59375 370.144531 "/>
<path fill-rule="nonzero" fill="rgb(22%, 59.600002%, 14.9%)" fill-opacity="1" d="M 325.730469 133.46875 C 325.730469 126.738281 315.625 126.738281 315.625 133.46875 C 315.625 140.195312 325.730469 140.195312 325.730469 133.46875 Z M 325.730469 133.46875 "/>
<path fill-rule="nonzero" fill="rgb(22%, 59.600002%, 14.9%)" fill-opacity="1" d="M 321.417969 133.542969 C 321.417969 126.816406 311.3125 126.816406 311.3125 133.542969 C 311.3125 140.273438 321.417969 140.273438 321.417969 133.542969 Z M 321.417969 133.542969 "/>
<path fill-rule="nonzero" fill="rgb(22%, 59.600002%, 14.9%)" fill-opacity="1" d="M 317.113281 133.507812 C 317.113281 126.78125 307.007812 126.78125 307.007812 133.507812 C 307.007812 140.238281 317.113281 140.238281 317.113281 133.507812 Z M 317.113281 133.507812 "/>
<path fill-rule="nonzero" fill="rgb(22%, 59.600002%, 14.9%)" fill-opacity="1" d="M 312.765625 133.359375 C 312.765625 126.632812 302.660156 126.632812 302.660156 133.359375 C 302.660156 140.089844 312.765625 140.089844 312.765625 133.359375 Z M 312.765625 133.359375 "/>
<path fill-rule="nonzero" fill="rgb(58.399999%, 34.5%, 69.800001%)" fill-opacity="1" d="M 278.824219 297.679688 C 278.824219 290.949219 268.71875 290.949219 268.71875 297.679688 C 268.71875 304.40625 278.824219 304.40625 278.824219 297.679688 Z M 278.824219 297.679688 "/>
<path fill-rule="nonzero" fill="rgb(22%, 59.600002%, 14.9%)" fill-opacity="1" d="M 308.324219 133.089844 C 308.324219 126.363281 298.21875 126.363281 298.21875 133.089844 C 298.21875 139.820312 308.324219 139.820312 308.324219 133.089844 Z M 308.324219 133.089844 "/>
<path fill-rule="nonzero" fill="rgb(58.399999%, 34.5%, 69.800001%)" fill-opacity="1" d="M 267.269531 258.195312 C 267.269531 251.46875 257.167969 251.46875 257.167969 258.195312 C 257.167969 264.925781 267.269531 264.925781 267.269531 258.195312 Z M 267.269531 258.195312 "/>
<path fill-rule="nonzero" fill="rgb(79.6%, 23.5%, 20%)" fill-opacity="1" d="M 361.757812 302.464844 C 361.757812 295.734375 351.652344 295.734375 351.652344 302.464844 C 351.652344 309.191406 361.757812 309.191406 361.757812 302.464844 Z M 361.757812 302.464844 "/>
<path fill-rule="nonzero" fill="rgb(58.399999%, 34.5%, 69.800001%)" fill-opacity="1" d="M 280.804688 316.75 C 280.804688 310.019531 270.699219 310.019531 270.699219 316.75 C 270.699219 323.476562 280.804688 323.476562 280.804688 316.75 Z M 280.804688 316.75 "/>
<path fill-rule="nonzero" fill="rgb(79.6%, 23.5%, 20%)" fill-opacity="1" d="M 360.3125 323.34375 C 360.3125 316.617188 350.207031 316.617188 350.207031 323.34375 C 350.207031 330.074219 360.3125 330.074219 360.3125 323.34375 Z M 360.3125 323.34375 "/>
<path fill-rule="nonzero" fill="rgb(58.399999%, 34.5%, 69.800001%)" fill-opacity="1" d="M 280.921875 328.898438 C 280.921875 322.171875 270.816406 322.171875 270.816406 328.898438 C 270.816406 335.628906 280.921875 335.628906 280.921875 328.898438 Z M 280.921875 328.898438 "/>
<path fill-rule="nonzero" fill="rgb(79.6%, 23.5%, 20%)" fill-opacity="1" d="M 360.929688 338.820312 C 360.929688 332.09375 350.824219 332.09375 350.824219 338.820312 C 350.824219 345.550781 360.929688 345.550781 360.929688 338.820312 Z M 360.929688 338.820312 "/>
<path fill-rule="nonzero" fill="rgb(58.399999%, 34.5%, 69.800001%)" fill-opacity="1" d="M 276.050781 364.683594 C 276.050781 357.953125 265.945312 357.953125 265.945312 364.683594 C 265.945312 371.410156 276.050781 371.410156 276.050781 364.683594 Z M 276.050781 364.683594 "/>
<path fill-rule="nonzero" fill="rgb(22%, 59.600002%, 14.9%)" fill-opacity="1" d="M 303.722656 132.6875 C 303.722656 125.960938 293.617188 125.960938 293.617188 132.6875 C 293.617188 139.417969 303.722656 139.417969 303.722656 132.6875 Z M 303.722656 132.6875 "/>
<path fill-rule="nonzero" fill="rgb(58.399999%, 34.5%, 69.800001%)" fill-opacity="1" d="M 255.863281 236.390625 C 255.863281 229.660156 245.757812 229.660156 245.757812 236.390625 C 245.757812 243.117188 255.863281 243.117188 255.863281 236.390625 Z M 255.863281 236.390625 "/>
<path fill-rule="nonzero" fill="rgb(79.6%, 23.5%, 20%)" fill-opacity="1" d="M 383.238281 240.015625 C 383.238281 233.285156 373.132812 233.285156 373.132812 240.015625 C 373.132812 246.742188 383.238281 246.742188 383.238281 240.015625 Z M 383.238281 240.015625 "/>
<path fill-rule="nonzero" fill="rgb(22%, 59.600002%, 14.9%)" fill-opacity="1" d="M 319.390625 133.539062 C 319.390625 126.8125 309.285156 126.8125 309.285156 133.539062 C 309.285156 140.269531 319.390625 140.269531 319.390625 133.539062 Z M 319.390625 133.539062 "/>
<path fill-rule="nonzero" fill="rgb(58.399999%, 34.5%, 69.800001%)" fill-opacity="1" d="M 255.730469 236.175781 C 255.730469 229.449219 245.625 229.449219 245.625 236.175781 C 245.625 242.90625 255.730469 242.90625 255.730469 236.175781 Z M 255.730469 236.175781 "/>
<path fill-rule="nonzero" fill="rgb(79.6%, 23.5%, 20%)" fill-opacity="1" d="M 394.96875 222.613281 C 394.96875 215.886719 384.863281 215.886719 384.863281 222.613281 C 384.863281 229.34375 394.96875 229.34375 394.96875 222.613281 Z M 394.96875 222.613281 "/>
<path fill-rule="nonzero" fill="rgb(22%, 59.600002%, 14.9%)" fill-opacity="1" d="M 378.640625 123.179688 C 378.640625 116.449219 368.535156 116.449219 368.535156 123.179688 C 368.535156 129.90625 378.640625 129.90625 378.640625 123.179688 Z M 378.640625 123.179688 "/>
<path fill-rule="nonzero" fill="rgb(79.6%, 23.5%, 20%)" fill-opacity="1" d="M 422.160156 194.738281 C 422.160156 188.007812 412.054688 188.007812 412.054688 194.738281 C 412.054688 201.46875 422.160156 201.46875 422.160156 194.738281 Z M 422.160156 194.738281 "/>
<path fill-rule="nonzero" fill="rgb(22%, 59.600002%, 14.9%)" fill-opacity="1" d="M 353.355469 130.320312 C 353.355469 123.589844 343.25 123.589844 343.25 130.320312 C 343.25 137.046875 353.355469 137.046875 353.355469 130.320312 Z M 353.355469 130.320312 "/>
<path fill-rule="nonzero" fill="rgb(58.399999%, 34.5%, 69.800001%)" fill-opacity="1" d="M 278.53125 295.933594 C 278.53125 289.203125 268.425781 289.203125 268.425781 295.933594 C 268.425781 302.660156 278.53125 302.660156 278.53125 295.933594 Z M 278.53125 295.933594 "/>
<path fill-rule="nonzero" fill="rgb(79.6%, 23.5%, 20%)" fill-opacity="1" d="M 377.847656 398.894531 C 377.847656 392.164062 367.742188 392.164062 367.742188 398.894531 C 367.742188 405.621094 377.847656 405.621094 377.847656 398.894531 Z M 377.847656 398.894531 "/>
<path fill-rule="nonzero" fill="rgb(22%, 59.600002%, 14.9%)" fill-opacity="1" d="M 298.898438 132.128906 C 298.898438 125.398438 288.792969 125.398438 288.792969 132.128906 C 288.792969 138.855469 298.898438 138.855469 298.898438 132.128906 Z M 298.898438 132.128906 "/>
<path fill-rule="nonzero" fill="rgb(58.399999%, 34.5%, 69.800001%)" fill-opacity="1" d="M 244.652344 220.484375 C 244.652344 213.757812 234.546875 213.757812 234.546875 220.484375 C 234.546875 227.214844 244.652344 227.214844 244.652344 220.484375 Z M 244.652344 220.484375 "/>
<path fill-rule="nonzero" fill="rgb(22%, 59.600002%, 14.9%)" fill-opacity="1" d="M 293.753906 131.371094 C 293.753906 124.644531 283.648438 124.644531 283.648438 131.371094 C 283.648438 138.101562 293.753906 138.101562 293.753906 131.371094 Z M 293.753906 131.371094 "/>
<path fill-rule="nonzero" fill="rgb(58.399999%, 34.5%, 69.800001%)" fill-opacity="1" d="M 233.128906 207.460938 C 233.128906 200.730469 223.023438 200.730469 223.023438 207.460938 C 223.023438 214.1875 233.128906 214.1875 233.128906 207.460938 Z M 233.128906 207.460938 "/>
<path fill-rule="nonzero" fill="rgb(22%, 59.600002%, 14.9%)" fill-opacity="1" d="M 330.222656 133.269531 C 330.222656 126.542969 320.117188 126.542969 320.117188 133.269531 C 320.117188 140 330.222656 140 330.222656 133.269531 Z M 330.222656 133.269531 "/>
<path fill-rule="nonzero" fill="rgb(79.6%, 23.5%, 20%)" fill-opacity="1" d="M 426.964844 190.984375 C 426.964844 184.253906 416.859375 184.253906 416.859375 190.984375 C 416.859375 197.710938 426.964844 197.710938 426.964844 190.984375 Z M 426.964844 190.984375 "/>
<path fill-rule="nonzero" fill="rgb(22%, 59.600002%, 14.9%)" fill-opacity="1" d="M 405.652344 110.355469 C 405.652344 103.625 395.546875 103.625 395.546875 110.355469 C 395.546875 117.082031 405.652344 117.082031 405.652344 110.355469 Z M 405.652344 110.355469 "/>
<path fill-rule="nonzero" fill="rgb(79.6%, 23.5%, 20%)" fill-opacity="1" d="M 466.898438 168.773438 C 466.898438 162.042969 456.792969 162.042969 456.792969 168.773438 C 456.792969 175.5 466.898438 175.5 466.898438 168.773438 Z M 466.898438 168.773438 "/>
<path fill-rule="nonzero" fill="rgb(22%, 59.600002%, 14.9%)" fill-opacity="1" d="M 476.285156 27.613281 C 476.285156 20.882812 466.179688 20.882812 466.179688 27.613281 C 466.179688 34.339844 476.285156 34.339844 476.285156 27.613281 Z M 476.285156 27.613281 "/>
<path fill-rule="nonzero" fill="rgb(22%, 59.600002%, 14.9%)" fill-opacity="1" d="M 288.183594 130.367188 C 288.183594 123.640625 278.078125 123.640625 278.078125 130.367188 C 278.078125 137.097656 288.183594 137.097656 288.183594 130.367188 Z M 288.183594 130.367188 "/>
<path fill-rule="nonzero" fill="rgb(58.399999%, 34.5%, 69.800001%)" fill-opacity="1" d="M 220.597656 195.941406 C 220.597656 189.210938 210.492188 189.210938 210.492188 195.941406 C 210.492188 202.667969 220.597656 202.667969 220.597656 195.941406 Z M 220.597656 195.941406 "/>
<path fill-rule="nonzero" fill="rgb(22%, 59.600002%, 14.9%)" fill-opacity="1" d="M 267.78125 124.980469 C 267.78125 118.253906 257.675781 118.253906 257.675781 124.980469 C 257.675781 131.710938 267.78125 131.710938 267.78125 124.980469 Z M 267.78125 124.980469 "/>
<path fill-rule="nonzero" fill="rgb(58.399999%, 34.5%, 69.800001%)" fill-opacity="1" d="M 260.914062 245.097656 C 260.914062 238.367188 250.808594 238.367188 250.808594 245.097656 C 250.808594 251.824219 260.914062 251.824219 260.914062 245.097656 Z M 260.914062 245.097656 "/>
<path fill-rule="nonzero" fill="rgb(79.6%, 23.5%, 20%)" fill-opacity="1" d="M 361.660156 303.230469 C 361.660156 296.503906 351.554688 296.503906 351.554688 303.230469 C 351.554688 309.960938 361.660156 309.960938 361.660156 303.230469 Z M 361.660156 303.230469 "/>
<path fill-rule="nonzero" fill="rgb(58.399999%, 34.5%, 69.800001%)" fill-opacity="1" d="M 280.976562 325.484375 C 280.976562 318.753906 270.871094 318.753906 270.871094 325.484375 C 270.871094 332.210938 280.976562 332.210938 280.976562 325.484375 Z M 280.976562 325.484375 "/>
<path fill-rule="nonzero" fill="rgb(79.6%, 23.5%, 20%)" fill-opacity="1" d="M 362.121094 348.96875 C 362.121094 342.242188 352.015625 342.242188 352.015625 348.96875 C 352.015625 355.699219 362.121094 355.699219 362.121094 348.96875 Z M 362.121094 348.96875 "/>
<path fill-rule="nonzero" fill="rgb(58.399999%, 34.5%, 69.800001%)" fill-opacity="1" d="M 249.195312 422.386719 C 249.195312 415.660156 239.089844 415.660156 239.089844 422.386719 C 239.089844 429.117188 249.195312 429.117188 249.195312 422.386719 Z M 249.195312 422.386719 "/>
<path fill-rule="nonzero" fill="rgb(22%, 59.600002%, 14.9%)" fill-opacity="1" d="M 282.019531 129.027344 C 282.019531 122.300781 271.914062 122.300781 271.914062 129.027344 C 271.914062 135.757812 282.019531 135.757812 282.019531 129.027344 Z M 282.019531 129.027344 "/>
<path fill-rule="nonzero" fill="rgb(58.399999%, 34.5%, 69.800001%)" fill-opacity="1" d="M 205.929688 185.070312 C 205.929688 178.339844 195.824219 178.339844 195.824219 185.070312 C 195.824219 191.796875 205.929688 191.796875 205.929688 185.070312 Z M 205.929688 185.070312 "/>
<path fill-rule="nonzero" fill="rgb(22%, 59.600002%, 14.9%)" fill-opacity="1" d="M 225.207031 103.675781 C 225.207031 96.945312 215.101562 96.945312 215.101562 103.675781 C 215.101562 110.402344 225.207031 110.402344 225.207031 103.675781 Z M 225.207031 103.675781 "/>
<path fill-rule="nonzero" fill="rgb(58.399999%, 34.5%, 69.800001%)" fill-opacity="1" d="M 141.175781 159.667969 C 141.175781 152.9375 131.070312 152.9375 131.070312 159.667969 C 131.070312 166.394531 141.175781 166.394531 141.175781 159.667969 Z M 141.175781 159.667969 "/>
<path fill-rule="nonzero" fill="rgb(22%, 59.600002%, 14.9%)" fill-opacity="1" d="M 275.019531 127.207031 C 275.019531 120.480469 264.914062 120.480469 264.914062 127.207031 C 264.914062 133.9375 275.019531 133.9375 275.019531 127.207031 Z M 275.019531 127.207031 "/>
<path fill-rule="nonzero" fill="rgb(58.399999%, 34.5%, 69.800001%)" fill-opacity="1" d="M 186.699219 174.132812 C 186.699219 167.40625 176.59375 167.40625 176.59375 174.132812 C 176.59375 180.863281 186.699219 180.863281 186.699219 174.132812 Z M 186.699219 174.132812 "/>
<path fill-rule="nonzero" fill="rgb(22%, 59.600002%, 14.9%)" fill-opacity="1" d="M 266.785156 124.644531 C 266.785156 117.917969 256.679688 117.917969 256.679688 124.644531 C 256.679688 131.375 266.785156 131.375 266.785156 124.644531 Z M 266.785156 124.644531 "/>
<path fill-rule="nonzero" fill="rgb(58.399999%, 34.5%, 69.800001%)" fill-opacity="1" d="M 154.648438 162.476562 C 154.648438 155.75 144.542969 155.75 144.542969 162.476562 C 144.542969 169.207031 154.648438 169.207031 154.648438 162.476562 Z M 154.648438 162.476562 "/>
<path fill-rule="nonzero" fill="rgb(22%, 59.600002%, 14.9%)" fill-opacity="1" d="M 256.5625 120.796875 C 256.5625 114.066406 246.457031 114.066406 246.457031 120.796875 C 246.457031 127.523438 256.5625 127.523438 256.5625 120.796875 Z M 256.5625 120.796875 "/>
<path fill-rule="nonzero" fill="rgb(22%, 59.600002%, 14.9%)" fill-opacity="1" d="M 242.519531 114.199219 C 242.519531 107.46875 232.414062 107.46875 232.414062 114.199219 C 232.414062 120.925781 242.519531 120.925781 242.519531 114.199219 Z M 242.519531 114.199219 "/>
<path fill-rule="nonzero" fill="rgb(22%, 59.600002%, 14.9%)" fill-opacity="1" d="M 214.332031 95.453125 C 214.332031 88.722656 204.226562 88.722656 204.226562 95.453125 C 204.226562 102.179688 214.332031 102.179688 214.332031 95.453125 Z M 214.332031 95.453125 "/>
<path fill-rule="nonzero" fill="rgb(58.399999%, 34.5%, 69.800001%)" fill-opacity="1" d="M 197.851562 180.0625 C 197.851562 173.332031 187.746094 173.332031 187.746094 180.0625 C 187.746094 186.789062 197.851562 186.789062 197.851562 180.0625 Z M 197.851562 180.0625 "/>
<path fill-rule="nonzero" fill="rgb(58.399999%, 34.5%, 69.800001%)" fill-opacity="1" d="M 212.664062 189.753906 C 212.664062 183.023438 202.558594 183.023438 202.558594 189.753906 C 202.558594 196.480469 212.664062 196.480469 212.664062 189.753906 Z M 212.664062 189.753906 "/>
<path fill-rule="nonzero" fill="rgb(58.399999%, 34.5%, 69.800001%)" fill-opacity="1" d="M 221.9375 197.0625 C 221.9375 190.335938 211.832031 190.335938 211.832031 197.0625 C 211.832031 203.792969 221.9375 203.792969 221.9375 197.0625 Z M 221.9375 197.0625 "/>
<path fill-rule="nonzero" fill="rgb(22%, 59.600002%, 14.9%)" fill-opacity="1" d="M 190.414062 71.300781 C 190.414062 64.574219 180.308594 64.574219 180.308594 71.300781 C 180.308594 78.03125 190.414062 78.03125 190.414062 71.300781 Z M 190.414062 71.300781 "/>
<path fill-rule="nonzero" fill="rgb(58.399999%, 34.5%, 69.800001%)" fill-opacity="1" d="M 228.726562 203.144531 C 228.726562 196.414062 218.621094 196.414062 218.621094 203.144531 C 218.621094 209.871094 228.726562 209.871094 228.726562 203.144531 Z M 228.726562 203.144531 "/>
<path fill-rule="nonzero" fill="rgb(22%, 59.600002%, 14.9%)" fill-opacity="1" d="M 220.882812 100.570312 C 220.882812 93.84375 210.777344 93.84375 210.777344 100.570312 C 210.777344 107.300781 220.882812 107.300781 220.882812 100.570312 Z M 220.882812 100.570312 "/>
<path fill-rule="nonzero" fill="rgb(58.399999%, 34.5%, 69.800001%)" fill-opacity="1" d="M 234.089844 208.449219 C 234.089844 201.71875 223.984375 201.71875 223.984375 208.449219 C 223.984375 215.175781 234.089844 215.175781 234.089844 208.449219 Z M 234.089844 208.449219 "/>
<path fill-rule="nonzero" fill="rgb(22%, 59.600002%, 14.9%)" fill-opacity="1" d="M 241.144531 113.464844 C 241.144531 106.734375 231.039062 106.734375 231.039062 113.464844 C 231.039062 120.191406 241.144531 120.191406 241.144531 113.464844 Z M 241.144531 113.464844 "/>
<path fill-rule="nonzero" fill="rgb(58.399999%, 34.5%, 69.800001%)" fill-opacity="1" d="M 170.703125 167.390625 C 170.703125 160.660156 160.597656 160.660156 160.597656 167.390625 C 160.597656 174.117188 170.703125 174.117188 170.703125 167.390625 Z M 170.703125 167.390625 "/>
<path fill-rule="nonzero" fill="rgb(58.399999%, 34.5%, 69.800001%)" fill-opacity="1" d="M 238.527344 213.222656 C 238.527344 206.496094 228.421875 206.496094 228.421875 213.222656 C 228.421875 219.953125 238.527344 219.953125 238.527344 213.222656 Z M 238.527344 213.222656 "/>
<path fill-rule="nonzero" fill="rgb(22%, 59.600002%, 14.9%)" fill-opacity="1" d="M 258.296875 121.503906 C 258.296875 114.773438 248.191406 114.773438 248.191406 121.503906 C 248.191406 128.230469 258.296875 128.230469 258.296875 121.503906 Z M 258.296875 121.503906 "/>
<path fill-rule="nonzero" fill="rgb(58.399999%, 34.5%, 69.800001%)" fill-opacity="1" d="M 215.089844 191.566406 C 215.089844 184.835938 204.984375 184.835938 204.984375 191.566406 C 204.984375 198.292969 215.089844 198.292969 215.089844 191.566406 Z M 215.089844 191.566406 "/>
<path fill-rule="nonzero" fill="rgb(22%, 59.600002%, 14.9%)" fill-opacity="1" d="M 275.09375 127.230469 C 275.09375 120.503906 264.988281 120.503906 264.988281 127.230469 C 264.988281 133.960938 275.09375 133.960938 275.09375 127.230469 Z M 275.09375 127.230469 "/>
<path fill-rule="nonzero" fill="rgb(58.399999%, 34.5%, 69.800001%)" fill-opacity="1" d="M 242.320312 217.621094 C 242.320312 210.894531 232.214844 210.894531 232.214844 217.621094 C 232.214844 224.351562 242.320312 224.351562 242.320312 217.621094 Z M 242.320312 217.621094 "/>
<path fill-rule="nonzero" fill="rgb(22%, 59.600002%, 14.9%)" fill-opacity="1" d="M 274.554688 127.078125 C 274.554688 120.347656 264.449219 120.347656 264.449219 127.078125 C 264.449219 133.804688 274.554688 133.804688 274.554688 127.078125 Z M 274.554688 127.078125 "/>
<path fill-rule="nonzero" fill="rgb(58.399999%, 34.5%, 69.800001%)" fill-opacity="1" d="M 251.808594 230.171875 C 251.808594 223.445312 241.703125 223.445312 241.703125 230.171875 C 241.703125 236.902344 251.808594 236.902344 251.808594 230.171875 Z M 251.808594 230.171875 "/>
<path fill-rule="nonzero" fill="rgb(79.6%, 23.5%, 20%)" fill-opacity="1" d="M 377.921875 249.8125 C 377.921875 243.085938 367.816406 243.085938 367.816406 249.8125 C 367.816406 256.542969 377.921875 256.542969 377.921875 249.8125 Z M 377.921875 249.8125 "/>
<path fill-rule="nonzero" fill="rgb(22%, 59.600002%, 14.9%)" fill-opacity="1" d="M 232.242188 108.300781 C 232.242188 101.574219 222.136719 101.574219 222.136719 108.300781 C 222.136719 115.03125 232.242188 115.03125 232.242188 108.300781 Z M 232.242188 108.300781 "/>
<path fill-rule="nonzero" fill="rgb(58.399999%, 34.5%, 69.800001%)" fill-opacity="1" d="M 245.648438 221.75 C 245.648438 215.023438 235.542969 215.023438 235.542969 221.75 C 235.542969 228.480469 245.648438 228.480469 245.648438 221.75 Z M 245.648438 221.75 "/>
<path fill-rule="nonzero" fill="rgb(22%, 59.600002%, 14.9%)" fill-opacity="1" d="M 291.269531 130.949219 C 291.269531 124.21875 281.164062 124.21875 281.164062 130.949219 C 281.164062 137.675781 291.269531 137.675781 291.269531 130.949219 Z M 291.269531 130.949219 "/>
<path fill-rule="nonzero" fill="rgb(58.399999%, 34.5%, 69.800001%)" fill-opacity="1" d="M 248.628906 225.683594 C 248.628906 218.957031 238.523438 218.957031 238.523438 225.683594 C 238.523438 232.414062 248.628906 232.414062 248.628906 225.683594 Z M 248.628906 225.683594 "/>
<path fill-rule="nonzero" fill="rgb(22%, 59.600002%, 14.9%)" fill-opacity="1" d="M 309.847656 133.195312 C 309.847656 126.46875 299.742188 126.46875 299.742188 133.195312 C 299.742188 139.925781 309.847656 139.925781 309.847656 133.195312 Z M 309.847656 133.195312 "/>
<path fill-rule="nonzero" fill="rgb(79.6%, 23.5%, 20%)" fill-opacity="1" d="M 372.652344 261.445312 C 372.652344 254.71875 362.546875 254.71875 362.546875 261.445312 C 362.546875 268.175781 372.652344 268.175781 372.652344 261.445312 Z M 372.652344 261.445312 "/>
<path fill-rule="nonzero" fill="rgb(58.399999%, 34.5%, 69.800001%)" fill-opacity="1" d="M 278.371094 295.035156 C 278.371094 288.304688 268.265625 288.304688 268.265625 295.035156 C 268.265625 301.761719 278.371094 301.761719 278.371094 295.035156 Z M 278.371094 295.035156 "/>
<path fill-rule="nonzero" fill="rgb(79.6%, 23.5%, 20%)" fill-opacity="1" d="M 363.089844 294.085938 C 363.089844 287.359375 352.984375 287.359375 352.984375 294.085938 C 352.984375 300.816406 363.089844 300.816406 363.089844 294.085938 Z M 363.089844 294.085938 "/>
<path fill-rule="nonzero" fill="rgb(58.399999%, 34.5%, 69.800001%)" fill-opacity="1" d="M 266.230469 255.839844 C 266.230469 249.113281 256.125 249.113281 256.125 255.839844 C 256.125 262.570312 266.230469 262.570312 266.230469 255.839844 Z M 266.230469 255.839844 "/>
<path fill-rule="nonzero" fill="rgb(22%, 59.600002%, 14.9%)" fill-opacity="1" d="M 310.75 133.253906 C 310.75 126.523438 300.644531 126.523438 300.644531 133.253906 C 300.644531 139.980469 310.75 139.980469 310.75 133.253906 Z M 310.75 133.253906 "/>
<path fill-rule="nonzero" fill="rgb(58.399999%, 34.5%, 69.800001%)" fill-opacity="1" d="M 251.335938 229.488281 C 251.335938 222.757812 241.230469 222.757812 241.230469 229.488281 C 241.230469 236.214844 251.335938 236.214844 251.335938 229.488281 Z M 251.335938 229.488281 "/>
<path fill-rule="nonzero" fill="rgb(22%, 59.600002%, 14.9%)" fill-opacity="1" d="M 332.613281 133.117188 C 332.613281 126.390625 322.507812 126.390625 322.507812 133.117188 C 322.507812 139.847656 332.613281 139.847656 332.613281 133.117188 Z M 332.613281 133.117188 "/>
<path fill-rule="nonzero" fill="rgb(79.6%, 23.5%, 20%)" fill-opacity="1" d="M 411.980469 203.695312 C 411.980469 196.96875 401.875 196.96875 401.875 203.695312 C 401.875 210.425781 411.980469 210.425781 411.980469 203.695312 Z M 411.980469 203.695312 "/>
<path fill-rule="nonzero" fill="rgb(22%, 59.600002%, 14.9%)" fill-opacity="1" d="M 352.417969 130.503906 C 352.417969 123.773438 342.3125 123.773438 342.3125 130.503906 C 342.3125 137.230469 352.417969 137.230469 352.417969 130.503906 Z M 352.417969 130.503906 "/>
<path fill-rule="nonzero" fill="rgb(58.399999%, 34.5%, 69.800001%)" fill-opacity="1" d="M 253.839844 233.210938 C 253.839844 226.480469 243.734375 226.480469 243.734375 233.210938 C 243.734375 239.9375 253.839844 239.9375 253.839844 233.210938 Z M 253.839844 233.210938 "/>
<path fill-rule="nonzero" fill="rgb(22%, 59.600002%, 14.9%)" fill-opacity="1" d="M 366.113281 127.253906 C 366.113281 120.523438 356.007812 120.523438 356.007812 127.253906 C 356.007812 133.980469 366.113281 133.980469 366.113281 127.253906 Z M 366.113281 127.253906 "/>
<path fill-rule="nonzero" fill="rgb(79.6%, 23.5%, 20%)" fill-opacity="1" d="M 513.246094 158.015625 C 513.246094 151.289062 503.140625 151.289062 503.140625 158.015625 C 503.140625 164.746094 513.246094 164.746094 513.246094 158.015625 Z M 513.246094 158.015625 "/>
<path fill-rule="nonzero" fill="rgb(58.399999%, 34.5%, 69.800001%)" fill-opacity="1" d="M 256.179688 236.898438 C 256.179688 230.167969 246.074219 230.167969 246.074219 236.898438 C 246.074219 243.625 256.179688 243.625 256.179688 236.898438 Z M 256.179688 236.898438 "/>
<path fill-rule="nonzero" fill="rgb(58.399999%, 34.5%, 69.800001%)" fill-opacity="1" d="M 258.390625 240.59375 C 258.390625 233.867188 248.285156 233.867188 248.285156 240.59375 C 248.285156 247.324219 258.390625 247.324219 258.390625 240.59375 Z M 258.390625 240.59375 "/>
<path fill-rule="nonzero" fill="rgb(58.399999%, 34.5%, 69.800001%)" fill-opacity="1" d="M 260.503906 244.34375 C 260.503906 237.613281 250.398438 237.613281 250.398438 244.34375 C 250.398438 251.070312 260.503906 251.070312 260.503906 244.34375 Z M 260.503906 244.34375 "/>
<path fill-rule="nonzero" fill="rgb(58.399999%, 34.5%, 69.800001%)" fill-opacity="1" d="M 262.542969 248.1875 C 262.542969 241.460938 252.4375 241.460938 252.4375 248.1875 C 252.4375 254.917969 262.542969 254.917969 262.542969 248.1875 Z M 262.542969 248.1875 "/>
<path fill-rule="nonzero" fill="rgb(79.6%, 23.5%, 20%)" fill-opacity="1" d="M 417.464844 198.6875 C 417.464844 191.960938 407.359375 191.960938 407.359375 198.6875 C 407.359375 205.417969 417.464844 205.417969 417.464844 198.6875 Z M 417.464844 198.6875 "/>
<path fill-rule="nonzero" fill="rgb(58.399999%, 34.5%, 69.800001%)" fill-opacity="1" d="M 264.527344 252.179688 C 264.527344 245.453125 254.421875 245.453125 254.421875 252.179688 C 254.421875 258.910156 264.527344 258.910156 264.527344 252.179688 Z M 264.527344 252.179688 "/>
<path fill-rule="nonzero" fill="rgb(79.6%, 23.5%, 20%)" fill-opacity="1" d="M 391.765625 226.917969 C 391.765625 220.191406 381.660156 220.191406 381.660156 226.917969 C 381.660156 233.648438 391.765625 233.648438 391.765625 226.917969 Z M 391.765625 226.917969 "/>
<path fill-rule="nonzero" fill="rgb(22%, 59.600002%, 14.9%)" fill-opacity="1" d="M 378.433594 123.257812 C 378.433594 116.527344 368.328125 116.527344 368.328125 123.257812 C 368.328125 129.984375 378.433594 129.984375 378.433594 123.257812 Z M 378.433594 123.257812 "/>
<path fill-rule="nonzero" fill="rgb(79.6%, 23.5%, 20%)" fill-opacity="1" d="M 424.097656 193.1875 C 424.097656 186.460938 413.992188 186.460938 413.992188 193.1875 C 413.992188 199.917969 424.097656 199.917969 424.097656 193.1875 Z M 424.097656 193.1875 "/>
<path fill-rule="nonzero" fill="rgb(22%, 59.600002%, 14.9%)" fill-opacity="1" d="M 362.734375 128.167969 C 362.734375 121.441406 352.628906 121.441406 352.628906 128.167969 C 352.628906 134.898438 362.734375 134.898438 362.734375 128.167969 Z M 362.734375 128.167969 "/>
<path fill-rule="nonzero" fill="rgb(58.399999%, 34.5%, 69.800001%)" fill-opacity="1" d="M 266.476562 256.382812 C 266.476562 249.65625 256.371094 249.65625 256.371094 256.382812 C 256.371094 263.113281 266.476562 263.113281 266.476562 256.382812 Z M 266.476562 256.382812 "/>
<path fill-rule="nonzero" fill="rgb(79.6%, 23.5%, 20%)" fill-opacity="1" d="M 379.222656 247.265625 C 379.222656 240.539062 369.117188 240.539062 369.117188 247.265625 C 369.117188 253.996094 379.222656 253.996094 379.222656 247.265625 Z M 379.222656 247.265625 "/>
<path fill-rule="nonzero" fill="rgb(22%, 59.600002%, 14.9%)" fill-opacity="1" d="M 312.457031 133.34375 C 312.457031 126.617188 302.351562 126.617188 302.351562 133.34375 C 302.351562 140.074219 312.457031 140.074219 312.457031 133.34375 Z M 312.457031 133.34375 "/>
<path fill-rule="nonzero" fill="rgb(58.399999%, 34.5%, 69.800001%)" fill-opacity="1" d="M 246.988281 223.488281 C 246.988281 216.761719 236.882812 216.761719 236.882812 223.488281 C 236.882812 230.21875 246.988281 230.21875 246.988281 223.488281 Z M 246.988281 223.488281 "/>
<path fill-rule="nonzero" fill="rgb(58.399999%, 34.5%, 69.800001%)" fill-opacity="1" d="M 268.398438 260.871094 C 268.398438 254.140625 258.292969 254.140625 258.292969 260.871094 C 258.292969 267.597656 268.398438 267.597656 268.398438 260.871094 Z M 268.398438 260.871094 "/>
<path fill-rule="nonzero" fill="rgb(79.6%, 23.5%, 20%)" fill-opacity="1" d="M 371.347656 264.742188 C 371.347656 258.015625 361.242188 258.015625 361.242188 264.742188 C 361.242188 271.472656 371.347656 271.472656 371.347656 264.742188 Z M 371.347656 264.742188 "/>
<path fill-rule="nonzero" fill="rgb(58.399999%, 34.5%, 69.800001%)" fill-opacity="1" d="M 270.316406 265.734375 C 270.316406 259.003906 260.210938 259.003906 260.210938 265.734375 C 260.210938 272.460938 270.316406 272.460938 270.316406 265.734375 Z M 270.316406 265.734375 "/>
<path fill-rule="nonzero" fill="rgb(79.6%, 23.5%, 20%)" fill-opacity="1" d="M 366.007812 281.183594 C 366.007812 274.453125 355.902344 274.453125 355.902344 281.183594 C 355.902344 287.910156 366.007812 287.910156 366.007812 281.183594 Z M 366.007812 281.183594 "/>
<path fill-rule="nonzero" fill="rgb(58.399999%, 34.5%, 69.800001%)" fill-opacity="1" d="M 258.164062 240.207031 C 258.164062 233.476562 248.058594 233.476562 248.058594 240.207031 C 248.058594 246.933594 258.164062 246.933594 258.164062 240.207031 Z M 258.164062 240.207031 "/>
<path fill-rule="nonzero" fill="rgb(22%, 59.600002%, 14.9%)" fill-opacity="1" d="M 275.28125 127.28125 C 275.28125 120.554688 265.175781 120.554688 265.175781 127.28125 C 265.175781 134.011719 275.28125 134.011719 275.28125 127.28125 Z M 275.28125 127.28125 "/>
<path fill-rule="nonzero" fill="rgb(58.399999%, 34.5%, 69.800001%)" fill-opacity="1" d="M 238.835938 213.570312 C 238.835938 206.84375 228.730469 206.84375 228.730469 213.570312 C 228.730469 220.300781 238.835938 220.300781 238.835938 213.570312 Z M 238.835938 213.570312 "/>
<path fill-rule="nonzero" fill="rgb(58.399999%, 34.5%, 69.800001%)" fill-opacity="1" d="M 272.230469 271.109375 C 272.230469 264.382812 262.125 264.382812 262.125 271.109375 C 262.125 277.839844 272.230469 277.839844 272.230469 271.109375 Z M 272.230469 271.109375 "/>
<path fill-rule="nonzero" fill="rgb(79.6%, 23.5%, 20%)" fill-opacity="1" d="M 362.4375 297.859375 C 362.4375 291.128906 352.332031 291.128906 352.332031 297.859375 C 352.332031 304.585938 362.4375 304.585938 362.4375 297.859375 Z M 362.4375 297.859375 "/>
<path fill-rule="nonzero" fill="rgb(58.399999%, 34.5%, 69.800001%)" fill-opacity="1" d="M 278.414062 295.261719 C 278.414062 288.535156 268.308594 288.535156 268.308594 295.261719 C 268.308594 301.992188 278.414062 301.992188 278.414062 295.261719 Z M 278.414062 295.261719 "/>
<path fill-rule="nonzero" fill="rgb(79.6%, 23.5%, 20%)" fill-opacity="1" d="M 374.699219 256.636719 C 374.699219 249.910156 364.59375 249.910156 364.59375 256.636719 C 364.59375 263.367188 374.699219 263.367188 374.699219 256.636719 Z M 374.699219 256.636719 "/>
<path fill-rule="nonzero" fill="rgb(22%, 59.600002%, 14.9%)" fill-opacity="1" d="M 329.207031 133.328125 C 329.207031 126.597656 319.101562 126.597656 319.101562 133.328125 C 319.101562 140.054688 329.207031 140.054688 329.207031 133.328125 Z M 329.207031 133.328125 "/>
<path fill-rule="nonzero" fill="rgb(58.399999%, 34.5%, 69.800001%)" fill-opacity="1" d="M 280.957031 321.617188 C 280.957031 314.890625 270.851562 314.890625 270.851562 321.617188 C 270.851562 328.347656 280.957031 328.347656 280.957031 321.617188 Z M 280.957031 321.617188 "/>
<path fill-rule="nonzero" fill="rgb(58.399999%, 34.5%, 69.800001%)" fill-opacity="1" d="M 274.152344 277.1875 C 274.152344 270.460938 264.046875 270.460938 264.046875 277.1875 C 264.046875 283.917969 274.152344 283.917969 274.152344 277.1875 Z M 274.152344 277.1875 "/>
<path fill-rule="nonzero" fill="rgb(79.6%, 23.5%, 20%)" fill-opacity="1" d="M 360.507812 316.214844 C 360.507812 309.488281 350.402344 309.488281 350.402344 316.214844 C 350.402344 322.945312 360.507812 322.945312 360.507812 316.214844 Z M 360.507812 316.214844 "/>
<path fill-rule="nonzero" fill="rgb(58.399999%, 34.5%, 69.800001%)" fill-opacity="1" d="M 279.886719 343.488281 C 279.886719 336.757812 269.78125 336.757812 269.78125 343.488281 C 269.78125 350.214844 279.886719 350.214844 279.886719 343.488281 Z M 279.886719 343.488281 "/>
<path fill-rule="nonzero" fill="rgb(79.6%, 23.5%, 20%)" fill-opacity="1" d="M 382.0625 406.800781 C 382.0625 400.074219 371.957031 400.074219 371.957031 406.800781 C 371.957031 413.53125 382.0625 413.53125 382.0625 406.800781 Z M 382.0625 406.800781 "/>
<path fill-rule="nonzero" fill="rgb(58.399999%, 34.5%, 69.800001%)" fill-opacity="1" d="M 276.074219 284.261719 C 276.074219 277.535156 265.96875 277.535156 265.96875 284.261719 C 265.96875 290.992188 276.074219 290.992188 276.074219 284.261719 Z M 276.074219 284.261719 "/>
<path fill-rule="nonzero" fill="rgb(79.6%, 23.5%, 20%)" fill-opacity="1" d="M 360.9375 338.914062 C 360.9375 332.1875 350.832031 332.1875 350.832031 338.914062 C 350.832031 345.644531 360.9375 345.644531 360.9375 338.914062 Z M 360.9375 338.914062 "/>
<path fill-rule="nonzero" fill="rgb(58.399999%, 34.5%, 69.800001%)" fill-opacity="1" d="M 277.964844 292.835938 C 277.964844 286.109375 267.859375 286.109375 267.859375 292.835938 C 267.859375 299.566406 277.964844 299.566406 277.964844 292.835938 Z M 277.964844 292.835938 "/>
<path fill-rule="nonzero" fill="rgb(79.6%, 23.5%, 20%)" fill-opacity="1" d="M 368.042969 374.632812 C 368.042969 367.902344 357.9375 367.902344 357.9375 374.632812 C 357.9375 381.359375 368.042969 381.359375 368.042969 374.632812 Z M 368.042969 374.632812 "/>
<path fill-rule="nonzero" fill="rgb(58.399999%, 34.5%, 69.800001%)" fill-opacity="1" d="M 279.714844 303.90625 C 279.714844 297.175781 269.609375 297.175781 269.609375 303.90625 C 269.609375 310.632812 279.714844 310.632812 279.714844 303.90625 Z M 279.714844 303.90625 "/>
<path fill-rule="nonzero" fill="rgb(58.399999%, 34.5%, 69.800001%)" fill-opacity="1" d="M 280.921875 320.050781 C 280.921875 313.320312 270.820312 313.320312 270.820312 320.050781 C 270.820312 326.777344 280.921875 326.777344 280.921875 320.050781 Z M 280.921875 320.050781 "/>
<path fill-rule="nonzero" fill="rgb(58.399999%, 34.5%, 69.800001%)" fill-opacity="1" d="M 276.277344 363.757812 C 276.277344 357.027344 266.171875 357.027344 266.171875 363.757812 C 266.171875 370.484375 276.277344 370.484375 276.277344 363.757812 Z M 276.277344 363.757812 "/>
<path fill-rule="nonzero" fill="rgb(79.6%, 23.5%, 20%)" fill-opacity="1" d="M 360.328125 321.75 C 360.328125 315.019531 350.222656 315.019531 350.222656 321.75 C 350.222656 328.476562 360.328125 328.476562 360.328125 321.75 Z M 360.328125 321.75 "/>
<path fill-rule="nonzero" fill="rgb(79.6%, 23.5%, 20%)" fill-opacity="1" d="M 361.449219 304.949219 C 361.449219 298.21875 351.34375 298.21875 351.34375 304.949219 C 351.34375 311.675781 361.449219 311.675781 361.449219 304.949219 Z M 361.449219 304.949219 "/>
<path fill-rule="nonzero" fill="rgb(79.6%, 23.5%, 20%)" fill-opacity="1" d="M 363.179688 293.609375 C 363.179688 286.878906 353.074219 286.878906 353.074219 293.609375 C 353.074219 300.335938 363.179688 300.335938 363.179688 293.609375 Z M 363.179688 293.609375 "/>
<path fill-rule="nonzero" fill="rgb(58.399999%, 34.5%, 69.800001%)" fill-opacity="1" d="M 271.816406 378.964844 C 271.816406 372.234375 261.710938 372.234375 261.710938 378.964844 C 261.710938 385.691406 271.816406 385.691406 271.816406 378.964844 Z M 271.816406 378.964844 "/>
<path fill-rule="nonzero" fill="rgb(79.6%, 23.5%, 20%)" fill-opacity="1" d="M 365.0625 284.882812 C 365.0625 278.152344 354.957031 278.152344 354.957031 284.882812 C 354.957031 291.609375 365.0625 291.609375 365.0625 284.882812 Z M 365.0625 284.882812 "/>
<path fill-rule="nonzero" fill="rgb(58.399999%, 34.5%, 69.800001%)" fill-opacity="1" d="M 280.148438 341.070312 C 280.148438 334.339844 270.042969 334.339844 270.042969 341.070312 C 270.042969 347.796875 280.148438 347.796875 280.148438 341.070312 Z M 280.148438 341.070312 "/>
<path fill-rule="nonzero" fill="rgb(79.6%, 23.5%, 20%)" fill-opacity="1" d="M 366.980469 277.710938 C 366.980469 270.980469 356.875 270.980469 356.875 277.710938 C 356.875 284.4375 366.980469 284.4375 366.980469 277.710938 Z M 366.980469 277.710938 "/>
<path fill-rule="nonzero" fill="rgb(58.399999%, 34.5%, 69.800001%)" fill-opacity="1" d="M 280.851562 317.8125 C 280.851562 311.085938 270.746094 311.085938 270.746094 317.8125 C 270.746094 324.542969 280.851562 324.542969 280.851562 317.8125 Z M 280.851562 317.8125 "/>
<path fill-rule="nonzero" fill="rgb(79.6%, 23.5%, 20%)" fill-opacity="1" d="M 361.988281 348.039062 C 361.988281 341.308594 351.882812 341.308594 351.882812 348.039062 C 351.882812 354.765625 361.988281 354.765625 361.988281 348.039062 Z M 361.988281 348.039062 "/>
<path fill-rule="nonzero" fill="rgb(79.6%, 23.5%, 20%)" fill-opacity="1" d="M 368.902344 271.566406 C 368.902344 264.835938 358.796875 264.835938 358.796875 271.566406 C 358.796875 278.292969 368.902344 278.292969 368.902344 271.566406 Z M 368.902344 271.566406 "/>
<path fill-rule="nonzero" fill="rgb(58.399999%, 34.5%, 69.800001%)" fill-opacity="1" d="M 279.066406 299.234375 C 279.066406 292.507812 268.960938 292.507812 268.960938 299.234375 C 268.960938 305.964844 279.066406 305.964844 279.066406 299.234375 Z M 279.066406 299.234375 "/>
<path fill-rule="nonzero" fill="rgb(79.6%, 23.5%, 20%)" fill-opacity="1" d="M 362.269531 298.929688 C 362.269531 292.199219 352.164062 292.199219 352.164062 298.929688 C 352.164062 305.65625 362.269531 305.65625 362.269531 298.929688 Z M 362.269531 298.929688 "/>
<path fill-rule="nonzero" fill="rgb(58.399999%, 34.5%, 69.800001%)" fill-opacity="1" d="M 271.84375 269.976562 C 271.84375 263.25 261.738281 263.25 261.738281 269.976562 C 261.738281 276.707031 271.84375 276.707031 271.84375 269.976562 Z M 271.84375 269.976562 "/>
<path fill-rule="nonzero" fill="rgb(22%, 59.600002%, 14.9%)" fill-opacity="1" d="M 369.550781 126.242188 C 369.550781 119.515625 359.445312 119.515625 359.445312 126.242188 C 359.445312 132.972656 369.550781 132.972656 369.550781 126.242188 Z M 369.550781 126.242188 "/>
<path fill-rule="nonzero" fill="rgb(79.6%, 23.5%, 20%)" fill-opacity="1" d="M 471.582031 167.03125 C 471.582031 160.304688 461.476562 160.304688 461.476562 167.03125 C 461.476562 173.761719 471.582031 173.761719 471.582031 167.03125 Z M 471.582031 167.03125 "/>
<path fill-rule="nonzero" fill="rgb(79.6%, 23.5%, 20%)" fill-opacity="1" d="M 370.820312 266.140625 C 370.820312 259.414062 360.714844 259.414062 360.714844 266.140625 C 360.714844 272.871094 370.820312 272.871094 370.820312 266.140625 Z M 370.820312 266.140625 "/>
<path fill-rule="nonzero" fill="rgb(58.399999%, 34.5%, 69.800001%)" fill-opacity="1" d="M 275.625 282.484375 C 275.625 275.757812 265.519531 275.757812 265.519531 282.484375 C 265.519531 289.214844 275.625 289.214844 275.625 282.484375 Z M 275.625 282.484375 "/>
<path fill-rule="nonzero" fill="rgb(79.6%, 23.5%, 20%)" fill-opacity="1" d="M 379.921875 245.941406 C 379.921875 239.214844 369.816406 239.214844 369.816406 245.941406 C 369.816406 252.671875 379.921875 252.671875 379.921875 245.941406 Z M 379.921875 245.941406 "/>
<path fill-rule="nonzero" fill="rgb(22%, 59.600002%, 14.9%)" fill-opacity="1" d="M 349.910156 130.96875 C 349.910156 124.238281 339.804688 124.238281 339.804688 130.96875 C 339.804688 137.695312 349.910156 137.695312 349.910156 130.96875 Z M 349.910156 130.96875 "/>
<path fill-rule="nonzero" fill="rgb(79.6%, 23.5%, 20%)" fill-opacity="1" d="M 364.929688 285.433594 C 364.929688 278.703125 354.824219 278.703125 354.824219 285.433594 C 354.824219 292.160156 364.929688 292.160156 364.929688 285.433594 Z M 364.929688 285.433594 "/>
<path fill-rule="nonzero" fill="rgb(79.6%, 23.5%, 20%)" fill-opacity="1" d="M 372.734375 261.242188 C 372.734375 254.511719 362.628906 254.511719 362.628906 261.242188 C 362.628906 267.96875 372.734375 267.96875 372.734375 261.242188 Z M 372.734375 261.242188 "/>
<path fill-rule="nonzero" fill="rgb(58.399999%, 34.5%, 69.800001%)" fill-opacity="1" d="M 270.441406 266.070312 C 270.441406 259.34375 260.335938 259.34375 260.335938 266.070312 C 260.335938 272.800781 270.441406 272.800781 270.441406 266.070312 Z M 270.441406 266.070312 "/>
<path fill-rule="nonzero" fill="rgb(79.6%, 23.5%, 20%)" fill-opacity="1" d="M 374.660156 256.730469 C 374.660156 250 364.554688 250 364.554688 256.730469 C 364.554688 263.457031 374.660156 263.457031 374.660156 256.730469 Z M 374.660156 256.730469 "/>
<path fill-rule="nonzero" fill="rgb(58.399999%, 34.5%, 69.800001%)" fill-opacity="1" d="M 262.820312 248.730469 C 262.820312 242.003906 252.714844 242.003906 252.714844 248.730469 C 252.714844 255.460938 262.820312 255.460938 262.820312 248.730469 Z M 262.820312 248.730469 "/>
<path fill-rule="nonzero" fill="rgb(22%, 59.600002%, 14.9%)" fill-opacity="1" d="M 335.308594 132.902344 C 335.308594 126.175781 325.203125 126.175781 325.203125 132.902344 C 325.203125 139.632812 335.308594 139.632812 335.308594 132.902344 Z M 335.308594 132.902344 "/>
<path fill-rule="nonzero" fill="rgb(79.6%, 23.5%, 20%)" fill-opacity="1" d="M 405.339844 210.40625 C 405.339844 203.675781 395.234375 203.675781 395.234375 210.40625 C 395.234375 217.132812 405.339844 217.132812 405.339844 210.40625 Z M 405.339844 210.40625 "/>
<path fill-rule="nonzero" fill="rgb(22%, 59.600002%, 14.9%)" fill-opacity="1" d="M 306.714844 132.964844 C 306.714844 126.238281 296.609375 126.238281 296.609375 132.964844 C 296.609375 139.695312 306.714844 139.695312 306.714844 132.964844 Z M 306.714844 132.964844 "/>
<path fill-rule="nonzero" fill="rgb(58.399999%, 34.5%, 69.800001%)" fill-opacity="1" d="M 208.242188 186.625 C 208.242188 179.894531 198.136719 179.894531 198.136719 186.625 C 198.136719 193.351562 208.242188 193.351562 208.242188 186.625 Z M 208.242188 186.625 "/>
<path fill-rule="nonzero" fill="rgb(22%, 59.600002%, 14.9%)" fill-opacity="1" d="M 219.601562 99.609375 C 219.601562 92.882812 209.496094 92.882812 209.496094 99.609375 C 209.496094 106.339844 219.601562 106.339844 219.601562 99.609375 Z M 219.601562 99.609375 "/>
<path fill-rule="nonzero" fill="rgb(58.399999%, 34.5%, 69.800001%)" fill-opacity="1" d="M 70.402344 163.117188 C 70.402344 156.386719 60.296875 156.386719 60.296875 163.117188 C 60.296875 169.84375 70.402344 169.84375 70.402344 163.117188 Z M 70.402344 163.117188 "/>
<path fill-rule="nonzero" fill="rgb(79.6%, 23.5%, 20%)" fill-opacity="1" d="M 376.605469 252.507812 C 376.605469 245.777344 366.5 245.777344 366.5 252.507812 C 366.5 259.234375 376.605469 259.234375 376.605469 252.507812 Z M 376.605469 252.507812 "/>
<path fill-rule="nonzero" fill="rgb(58.399999%, 34.5%, 69.800001%)" fill-opacity="1" d="M 250.800781 228.71875 C 250.800781 221.988281 240.695312 221.988281 240.695312 228.71875 C 240.695312 235.445312 250.800781 235.445312 250.800781 228.71875 Z M 250.800781 228.71875 "/>
<path fill-rule="nonzero" fill="rgb(22%, 59.600002%, 14.9%)" fill-opacity="1" d="M 267.902344 125.023438 C 267.902344 118.292969 257.796875 118.292969 257.796875 125.023438 C 257.796875 131.75 267.902344 131.75 267.902344 125.023438 Z M 267.902344 125.023438 "/>
<path fill-rule="nonzero" fill="rgb(58.399999%, 34.5%, 69.800001%)" fill-opacity="1" d="M 227.789062 202.265625 C 227.789062 195.535156 217.683594 195.535156 217.683594 202.265625 C 217.683594 208.992188 227.789062 208.992188 227.789062 202.265625 Z M 227.789062 202.265625 "/>
<path fill-rule="nonzero" fill="rgb(22%, 59.600002%, 14.9%)" fill-opacity="1" d="M 342.804688 132.074219 C 342.804688 125.34375 332.699219 125.34375 332.699219 132.074219 C 332.699219 138.800781 342.804688 138.800781 342.804688 132.074219 Z M 342.804688 132.074219 "/>
<path fill-rule="nonzero" fill="rgb(79.6%, 23.5%, 20%)" fill-opacity="1" d="M 467.941406 168.371094 C 467.941406 161.640625 457.835938 161.640625 457.835938 168.371094 C 457.835938 175.097656 467.941406 175.097656 467.941406 168.371094 Z M 467.941406 168.371094 "/>
<path fill-rule="nonzero" fill="rgb(79.6%, 23.5%, 20%)" fill-opacity="1" d="M 378.585938 248.5 C 378.585938 241.769531 368.480469 241.769531 368.480469 248.5 C 368.480469 255.226562 378.585938 255.226562 378.585938 248.5 Z M 378.585938 248.5 "/>
<path fill-rule="nonzero" fill="rgb(58.399999%, 34.5%, 69.800001%)" fill-opacity="1" d="M 227.042969 201.570312 C 227.042969 194.84375 216.9375 194.84375 216.9375 201.570312 C 216.9375 208.300781 227.042969 208.300781 227.042969 201.570312 Z M 227.042969 201.570312 "/>
<path fill-rule="nonzero" fill="rgb(79.6%, 23.5%, 20%)" fill-opacity="1" d="M 380.621094 244.644531 C 380.621094 237.914062 370.515625 237.914062 370.515625 244.644531 C 370.515625 251.371094 380.621094 251.371094 380.621094 244.644531 Z M 380.621094 244.644531 "/>
<path fill-rule="nonzero" fill="rgb(79.6%, 23.5%, 20%)" fill-opacity="1" d="M 382.726562 240.890625 C 382.726562 234.160156 372.621094 234.160156 372.621094 240.890625 C 372.621094 247.617188 382.726562 247.617188 382.726562 240.890625 Z M 382.726562 240.890625 "/>
<path fill-rule="nonzero" fill="rgb(79.6%, 23.5%, 20%)" fill-opacity="1" d="M 384.929688 237.191406 C 384.929688 230.464844 374.824219 230.464844 374.824219 237.191406 C 374.824219 243.921875 384.929688 243.921875 384.929688 237.191406 Z M 384.929688 237.191406 "/>
<path fill-rule="nonzero" fill="rgb(79.6%, 23.5%, 20%)" fill-opacity="1" d="M 387.257812 233.503906 C 387.257812 226.777344 377.152344 226.777344 377.152344 233.503906 C 377.152344 240.234375 387.257812 240.234375 387.257812 233.503906 Z M 387.257812 233.503906 "/>
<path fill-rule="nonzero" fill="rgb(22%, 59.600002%, 14.9%)" fill-opacity="1" d="M 271.4375 126.152344 C 271.4375 119.421875 261.332031 119.421875 261.332031 126.152344 C 261.332031 132.878906 271.4375 132.878906 271.4375 126.152344 Z M 271.4375 126.152344 "/>
<path fill-rule="nonzero" fill="rgb(79.6%, 23.5%, 20%)" fill-opacity="1" d="M 389.746094 229.785156 C 389.746094 223.058594 379.640625 223.058594 379.640625 229.785156 C 379.640625 236.515625 389.746094 236.515625 389.746094 229.785156 Z M 389.746094 229.785156 "/>
<path fill-rule="nonzero" fill="rgb(22%, 59.600002%, 14.9%)" fill-opacity="1" d="M 306.550781 132.953125 C 306.550781 126.222656 296.445312 126.222656 296.445312 132.953125 C 296.445312 139.679688 306.550781 139.679688 306.550781 132.953125 Z M 306.550781 132.953125 "/>
<path fill-rule="nonzero" fill="rgb(58.399999%, 34.5%, 69.800001%)" fill-opacity="1" d="M 225.496094 200.164062 C 225.496094 193.4375 215.390625 193.4375 215.390625 200.164062 C 215.390625 206.894531 225.496094 206.894531 225.496094 200.164062 Z M 225.496094 200.164062 "/>
<path fill-rule="nonzero" fill="rgb(22%, 59.600002%, 14.9%)" fill-opacity="1" d="M 274.121094 126.953125 C 274.121094 120.222656 264.015625 120.222656 264.015625 126.953125 C 264.015625 133.679688 274.121094 133.679688 274.121094 126.953125 Z M 274.121094 126.953125 "/>
<path fill-rule="nonzero" fill="rgb(58.399999%, 34.5%, 69.800001%)" fill-opacity="1" d="M 277.714844 291.582031 C 277.714844 284.855469 267.609375 284.855469 267.609375 291.582031 C 267.609375 298.3125 277.714844 298.3125 277.714844 291.582031 Z M 277.714844 291.582031 "/>
<path fill-rule="nonzero" fill="rgb(79.6%, 23.5%, 20%)" fill-opacity="1" d="M 392.4375 225.992188 C 392.4375 219.261719 382.332031 219.261719 382.332031 225.992188 C 382.332031 232.71875 392.4375 232.71875 392.4375 225.992188 Z M 392.4375 225.992188 "/>
<path fill-rule="nonzero" fill="rgb(22%, 59.600002%, 14.9%)" fill-opacity="1" d="M 329.828125 133.292969 C 329.828125 126.566406 319.722656 126.566406 319.722656 133.292969 C 319.722656 140.023438 329.828125 140.023438 329.828125 133.292969 Z M 329.828125 133.292969 "/>
<path fill-rule="nonzero" fill="rgb(58.399999%, 34.5%, 69.800001%)" fill-opacity="1" d="M 265.839844 254.980469 C 265.839844 248.25 255.734375 248.25 255.734375 254.980469 C 255.734375 261.707031 265.839844 261.707031 265.839844 254.980469 Z M 265.839844 254.980469 "/>
<path fill-rule="nonzero" fill="rgb(79.6%, 23.5%, 20%)" fill-opacity="1" d="M 366.746094 278.527344 C 366.746094 271.800781 356.640625 271.800781 356.640625 278.527344 C 356.640625 285.257812 366.746094 285.257812 366.746094 278.527344 Z M 366.746094 278.527344 "/>
<path fill-rule="nonzero" fill="rgb(58.399999%, 34.5%, 69.800001%)" fill-opacity="1" d="M 259.246094 242.089844 C 259.246094 235.359375 249.140625 235.359375 249.140625 242.089844 C 249.140625 248.816406 259.246094 248.816406 259.246094 242.089844 Z M 259.246094 242.089844 "/>
<path fill-rule="nonzero" fill="rgb(22%, 59.600002%, 14.9%)" fill-opacity="1" d="M 283.597656 129.394531 C 283.597656 122.667969 273.492188 122.667969 273.492188 129.394531 C 273.492188 136.125 283.597656 136.125 283.597656 129.394531 Z M 283.597656 129.394531 "/>
<path fill-rule="nonzero" fill="rgb(58.399999%, 34.5%, 69.800001%)" fill-opacity="1" d="M 257.425781 238.953125 C 257.425781 232.226562 247.320312 232.226562 247.320312 238.953125 C 247.320312 245.683594 257.425781 245.683594 257.425781 238.953125 Z M 257.425781 238.953125 "/>
<path fill-rule="nonzero" fill="rgb(79.6%, 23.5%, 20%)" fill-opacity="1" d="M 369.761719 269.0625 C 369.761719 262.332031 359.65625 262.332031 359.65625 269.0625 C 359.65625 275.789062 369.761719 275.789062 369.761719 269.0625 Z M 369.761719 269.0625 "/>
<path fill-rule="nonzero" fill="rgb(58.399999%, 34.5%, 69.800001%)" fill-opacity="1" d="M 235.945312 210.398438 C 235.945312 203.671875 225.839844 203.671875 225.839844 210.398438 C 225.839844 217.128906 235.945312 217.128906 235.945312 210.398438 Z M 235.945312 210.398438 "/>
<path fill-rule="nonzero" fill="rgb(22%, 59.600002%, 14.9%)" fill-opacity="1" d="M 181.292969 58.855469 C 181.292969 52.128906 171.1875 52.128906 171.1875 58.855469 C 171.1875 65.585938 181.292969 65.585938 181.292969 58.855469 Z M 181.292969 58.855469 "/>
<path fill-rule="nonzero" fill="rgb(79.6%, 23.5%, 20%)" fill-opacity="1" d="M 395.390625 222.070312 C 395.390625 215.339844 385.285156 215.339844 385.285156 222.070312 C 385.285156 228.796875 395.390625 228.796875 395.390625 222.070312 Z M 395.390625 222.070312 "/>
<path fill-rule="nonzero" fill="rgb(22%, 59.600002%, 14.9%)" fill-opacity="1" d="M 348.632812 131.191406 C 348.632812 124.460938 338.527344 124.460938 338.527344 131.191406 C 338.527344 137.917969 348.632812 137.917969 348.632812 131.191406 Z M 348.632812 131.191406 "/>
<path fill-rule="nonzero" fill="rgb(79.6%, 23.5%, 20%)" fill-opacity="1" d="M 398.6875 217.960938 C 398.6875 211.230469 388.582031 211.230469 388.582031 217.960938 C 388.582031 224.6875 398.6875 224.6875 398.6875 217.960938 Z M 398.6875 217.960938 "/>
<path fill-rule="nonzero" fill="rgb(22%, 59.600002%, 14.9%)" fill-opacity="1" d="M 365.4375 127.441406 C 365.4375 120.714844 355.332031 120.714844 355.332031 127.441406 C 355.332031 134.171875 365.4375 134.171875 365.4375 127.441406 Z M 365.4375 127.441406 "/>
<path fill-rule="nonzero" fill="rgb(79.6%, 23.5%, 20%)" fill-opacity="1" d="M 386.246094 235.082031 C 386.246094 228.355469 376.140625 228.355469 376.140625 235.082031 C 376.140625 241.8125 386.246094 241.8125 386.246094 235.082031 Z M 386.246094 235.082031 "/>
<path fill-rule="nonzero" fill="rgb(58.399999%, 34.5%, 69.800001%)" fill-opacity="1" d="M 269.992188 264.882812 C 269.992188 258.152344 259.886719 258.152344 259.886719 264.882812 C 259.886719 271.609375 269.992188 271.609375 269.992188 264.882812 Z M 269.992188 264.882812 "/>
<path fill-rule="nonzero" fill="rgb(79.6%, 23.5%, 20%)" fill-opacity="1" d="M 402.441406 213.585938 C 402.441406 206.855469 392.335938 206.855469 392.335938 213.585938 C 392.335938 220.3125 402.441406 220.3125 402.441406 213.585938 Z M 402.441406 213.585938 "/>
<path fill-rule="nonzero" fill="rgb(22%, 59.600002%, 14.9%)" fill-opacity="1" d="M 381.683594 122.023438 C 381.683594 115.292969 371.578125 115.292969 371.578125 122.023438 C 371.578125 128.75 381.683594 128.75 381.683594 122.023438 Z M 381.683594 122.023438 "/>
<path fill-rule="nonzero" fill="rgb(79.6%, 23.5%, 20%)" fill-opacity="1" d="M 423.292969 193.828125 C 423.292969 187.097656 413.1875 187.097656 413.1875 193.828125 C 413.1875 200.554688 423.292969 200.554688 423.292969 193.828125 Z M 423.292969 193.828125 "/>
<path fill-rule="nonzero" fill="rgb(22%, 59.600002%, 14.9%)" fill-opacity="1" d="M 354.664062 130.054688 C 354.664062 123.324219 344.558594 123.324219 344.558594 130.054688 C 344.558594 136.78125 354.664062 136.78125 354.664062 130.054688 Z M 354.664062 130.054688 "/>
<path fill-rule="nonzero" fill="rgb(58.399999%, 34.5%, 69.800001%)" fill-opacity="1" d="M 279.46875 302.027344 C 279.46875 295.300781 269.363281 295.300781 269.363281 302.027344 C 269.363281 308.757812 279.46875 308.757812 279.46875 302.027344 Z M 279.46875 302.027344 "/>
<path fill-rule="nonzero" fill="rgb(79.6%, 23.5%, 20%)" fill-opacity="1" d="M 406.816406 208.84375 C 406.816406 202.117188 396.710938 202.117188 396.710938 208.84375 C 396.710938 215.574219 406.816406 215.574219 406.816406 208.84375 Z M 406.816406 208.84375 "/>
<path fill-rule="nonzero" fill="rgb(22%, 59.600002%, 14.9%)" fill-opacity="1" d="M 398.707031 114.234375 C 398.707031 107.503906 388.601562 107.503906 388.601562 114.234375 C 388.601562 120.960938 398.707031 120.960938 398.707031 114.234375 Z M 398.707031 114.234375 "/>
<path fill-rule="nonzero" fill="rgb(79.6%, 23.5%, 20%)" fill-opacity="1" d="M 465.996094 169.125 C 465.996094 162.398438 455.890625 162.398438 455.890625 169.125 C 455.890625 175.855469 465.996094 175.855469 465.996094 169.125 Z M 465.996094 169.125 "/>
</svg>
