<?xml version="1.0" encoding="UTF-8"?>
<svg xmlns="http://www.w3.org/2000/svg" xmlns:xlink="http://www.w3.org/1999/xlink" width="600" height="600" viewBox="0 0 600 600">
<path fill="none" stroke-width="10" stroke-linecap="butt" stroke-linejoin="bevel" stroke="rgb(25.5%, 38.800001%, 84.7%)" stroke-opacity="1" stroke-miterlimit="2" d="M 42.855469 222.855469 L 202.03125 254.691406 L 204.039062 311.207031 L 237.191406 283.613281 L 230.84375 327.371094 L 298.324219 299.988281 L 366.316406 329.664062 L 356.457031 286.941406 L 382.070312 318.46875 L 366.339844 281.5625 L 391.917969 313.101562 L 381.972656 270.476562 L 448.554688 300 L 492.28125 280.6875 L 555.003906 252.984375 "/>
<path fill-rule="nonzero" fill="rgb(22%, 59.600002%, 14.9%)" fill-opacity="1" d="M 428.570312 171.429688 C 428.570312 242.4375 371.007812 300 300 300 C 228.992188 300 171.429688 242.4375 171.429688 171.429688 C 171.429688 100.421875 228.992188 42.855469 300 42.855469 C 371.007812 42.855469 428.570312 100.421875 428.570312 171.429688 "/>
<path fill-rule="nonzero" fill="rgb(58.399999%, 34.5%, 69.800001%)" fill-opacity="1" d="M 280.109375 428.570312 C 280.109375 499.578125 222.546875 557.144531 151.539062 557.144531 C 80.53125 557.144531 22.96875 499.578125 22.96875 428.570312 C 22.96875 357.5625 80.53125 300 151.539062 300 C 222.546875 300 280.109375 357.5625 280.109375 428.570312 "/>
<path fill-rule="nonzero" fill="rgb(79.6%, 23.5%, 20%)" fill-opacity="1" d="M 577.03125 428.570312 C 577.03125 499.578125 519.46875 557.144531 448.460938 557.144531 C 377.453125 557.144531 319.890625 499.578125 319.890625 428.570312 C 319.890625 357.5625 377.453125 300 448.460938 300 C 519.46875 300 577.03125 357.5625 577.03125 428.570312 "/>
</svg>
